<svg width="102" height="64" viewBox="0 0 102 64" fill="none" xmlns="http://www.w3.org/2000/svg">
<ellipse cx="48.5" cy="16.5" rx="21.5" ry="16.5" fill="#4D7EA8"/>
<ellipse cx="69.5" cy="44.5" rx="17.5" ry="14.5" fill="#4D7EA8"/>
<ellipse cx="70.5" cy="28" rx="21.5" ry="19" fill="#828489"/>
<ellipse cx="24" cy="28" rx="24" ry="22" fill="#828489"/>
<ellipse cx="36" cy="44.5" rx="21" ry="19.5" fill="#4D7EA8"/>
<path d="M15.1705 44V17.8182H24.017C26.071 17.8182 27.75 18.1889 29.054 18.9304C30.3665 19.6634 31.3381 20.6562 31.9688 21.9091C32.5994 23.1619 32.9148 24.5597 32.9148 26.1023C32.9148 27.6449 32.5994 29.0469 31.9688 30.3082C31.3466 31.5696 30.3835 32.5753 29.0795 33.3253C27.7756 34.0668 26.1051 34.4375 24.0682 34.4375H17.7273V31.625H23.9659C25.3722 31.625 26.5014 31.3821 27.3537 30.8963C28.206 30.4105 28.8239 29.7543 29.2074 28.9276C29.5994 28.0923 29.7955 27.1506 29.7955 26.1023C29.7955 25.054 29.5994 24.1165 29.2074 23.2898C28.8239 22.4631 28.2017 21.8153 27.3409 21.3466C26.4801 20.8693 25.3381 20.6307 23.9148 20.6307H18.3409V44H15.1705ZM45.6349 44.4091C43.7429 44.4091 42.1108 43.9915 40.7386 43.1562C39.375 42.3125 38.3224 41.1364 37.581 39.6278C36.848 38.1108 36.4815 36.3466 36.4815 34.3352C36.4815 32.3239 36.848 30.5511 37.581 29.017C38.3224 27.4744 39.3537 26.2727 40.6747 25.4119C42.0043 24.5426 43.5554 24.108 45.3281 24.108C46.3509 24.108 47.3608 24.2784 48.358 24.6193C49.3551 24.9602 50.2628 25.5142 51.081 26.2812C51.8991 27.0398 52.5511 28.0455 53.0369 29.2983C53.5227 30.5511 53.7656 32.0937 53.7656 33.9261V35.2045H38.6293V32.5966H50.6974C50.6974 31.4886 50.4759 30.5 50.0327 29.6307C49.598 28.7614 48.9759 28.0753 48.1662 27.5724C47.3651 27.0696 46.419 26.8182 45.3281 26.8182C44.1264 26.8182 43.0866 27.1165 42.2088 27.7131C41.3395 28.3011 40.6705 29.0682 40.2017 30.0142C39.733 30.9602 39.4986 31.9744 39.4986 33.0568V34.7955C39.4986 36.2784 39.7543 37.5355 40.2656 38.5668C40.7855 39.5895 41.5057 40.3693 42.4261 40.9062C43.3466 41.4347 44.4162 41.6989 45.6349 41.6989C46.4276 41.6989 47.1435 41.5881 47.7827 41.3665C48.4304 41.1364 48.9886 40.7955 49.4574 40.3438C49.9261 39.8835 50.2884 39.3125 50.544 38.6307L53.4588 39.4489C53.152 40.4375 52.6364 41.3068 51.9119 42.0568C51.1875 42.7983 50.2926 43.3778 49.2273 43.7955C48.1619 44.2045 46.9645 44.4091 45.6349 44.4091ZM66.8949 24.3636V26.9205H56.7188V24.3636H66.8949ZM59.6847 19.6591H62.7017V38.375C62.7017 39.2273 62.8253 39.8665 63.0724 40.2926C63.3281 40.7102 63.652 40.9915 64.044 41.1364C64.4446 41.2727 64.8665 41.3409 65.3097 41.3409C65.642 41.3409 65.9148 41.3239 66.1278 41.2898C66.3409 41.2472 66.5114 41.2131 66.6392 41.1875L67.2528 43.8977C67.0483 43.9744 66.7628 44.0511 66.3963 44.1278C66.0298 44.2131 65.5653 44.2557 65.0028 44.2557C64.1506 44.2557 63.3153 44.0724 62.4972 43.706C61.6875 43.3395 61.0142 42.7812 60.4773 42.0312C59.9489 41.2812 59.6847 40.3352 59.6847 39.1932V19.6591ZM71.4332 44V24.3636H74.4503V44H71.4332ZM72.9673 21.0909C72.3793 21.0909 71.8722 20.8906 71.446 20.4901C71.0284 20.0895 70.8196 19.608 70.8196 19.0455C70.8196 18.483 71.0284 18.0014 71.446 17.6009C71.8722 17.2003 72.3793 17 72.9673 17C73.5554 17 74.0582 17.2003 74.4759 17.6009C74.902 18.0014 75.1151 18.483 75.1151 19.0455C75.1151 19.608 74.902 20.0895 74.4759 20.4901C74.0582 20.8906 73.5554 21.0909 72.9673 21.0909ZM79.4137 44V41.6989L90.5614 27.3807V27.1761H79.7717V24.3636H94.4478V26.767L83.6069 40.983V41.1875H94.8058V44H79.4137Z" fill="#272932"/>
</svg>
